<svg width="23" height="19" viewBox="0 0 23 19" fill="none" xmlns="http://www.w3.org/2000/svg">
<path d="M21.5 7.00002H16.71L12.33 0.44002C12.14 0.16002 11.82 0.0200195 11.5 0.0200195C11.18 0.0200195 10.86 0.16002 10.67 0.45002L6.29 7.00002H1.5C0.95 7.00002 0.5 7.45002 0.5 8.00002C0.5 8.09002 0.51 8.18002 0.54 8.27002L3.08 17.54C3.31 18.38 4.08 19 5 19H18C18.92 19 19.69 18.38 19.93 17.54L22.47 8.27002L22.5 8.00002C22.5 7.45002 22.05 7.00002 21.5 7.00002ZM11.5 2.80002L14.3 7.00002H8.7L11.5 2.80002ZM18 17L5.01 17.01L2.81 9.00002H20.2L18 17ZM11.5 11C10.4 11 9.5 11.9 9.5 13C9.5 14.1 10.4 15 11.5 15C12.6 15 13.5 14.1 13.5 13C13.5 11.9 12.6 11 11.5 11Z" fill="#FEFEFE"/>
</svg>
