<svg width="152" height="40" viewBox="0 0 152 40" fill="none" xmlns="http://www.w3.org/2000/svg">
<path fill-rule="evenodd" clip-rule="evenodd" d="M61.4019 4.5357L56.673 9.08715L57.0654 9.13548C57.2813 9.16208 58.1645 9.20515 59.028 9.23115L60.5981 9.27849L63.2897 6.80453C64.7701 5.44382 66.001 4.32881 66.0251 4.32668C66.0492 4.32454 67.218 5.51982 68.6226 6.9829L71.1762 9.64294L72.2797 9.68898C72.8866 9.71429 73.7449 9.75279 74.1869 9.77451C74.6289 9.79624 74.9903 9.7877 74.9899 9.75553C74.9891 9.68746 66.2675 0.0235826 66.1856 2.76477e-05C66.1555 -0.00866255 64.0028 2.03239 61.4019 4.5357ZM48.8972 6.20551C48.7121 6.22015 48.4822 6.27298 48.3862 6.32291C47.8543 6.59947 47.8545 7.6984 48.3865 7.98868C48.4943 8.04753 49.165 8.0829 50.3865 8.09426C52.3385 8.1124 52.5818 8.15219 52.8887 8.50338C53.1 8.74518 54.7781 14.3712 56.4398 20.4091C56.8498 21.8986 57.2572 23.305 57.3452 23.5345C57.9028 24.989 58.7788 25.9154 59.9001 26.2363C60.3367 26.3613 60.8933 26.3726 66.9937 26.3816C73.1952 26.3907 73.6263 26.3828 73.8146 26.2572C74.3122 25.9251 74.38 25.1619 73.9507 24.724L73.7169 24.4856L71.8304 24.4282C70.7928 24.3965 67.8916 24.392 65.3832 24.4179C62.1325 24.4515 60.7344 24.4407 60.516 24.3802C60.0449 24.2497 59.7314 23.9955 59.3752 23.4552L59.0495 22.961L66.5528 22.9229L74.0561 22.8847L74.4299 22.7093C75.0699 22.409 75.2579 22.158 75.9829 20.636C76.7948 18.9313 79.9396 11.8756 80.1171 11.3603C80.2877 10.865 80.3428 9.91158 80.2225 9.53546C80.0523 9.00322 79.735 8.61986 79.2744 8.3901C78.8905 8.19862 78.7518 8.17399 77.9047 8.14708C77.0967 8.1214 76.9442 8.13534 76.8367 8.24489C76.7238 8.36007 76.7224 8.39445 76.8224 8.59173C76.8835 8.71218 76.9709 8.83422 77.0166 8.86303C77.1433 8.94285 77.3797 9.51838 77.3815 9.75149C77.3836 10.0164 77.5669 10.1163 78.0511 10.1163C78.5005 10.1163 78.5098 10.1493 78.268 10.8828C77.9149 11.9535 74.0981 20.5364 73.8579 20.7998L73.6597 21.0171L69.5214 21.0172C67.2454 21.0173 63.8466 21.04 61.9687 21.0676L58.5543 21.118L58.4665 20.7817C58.4182 20.5967 57.8289 18.4558 57.157 16.0241C56.4851 13.5923 55.6974 10.7007 55.4067 9.59827C55.116 8.49583 54.814 7.46673 54.7356 7.31138C54.4107 6.66739 53.8312 6.3274 52.8855 6.22594C52.2671 6.15962 49.6475 6.14621 48.8972 6.20551ZM63.6989 9.48141L61.4315 11.5664L59.9741 11.515C58.5315 11.4641 58.5176 11.4651 58.6227 11.6143C58.8001 11.866 61.5563 14.9187 61.6061 14.9187C61.6317 14.9187 62.5893 14.0206 63.7342 12.9229C65.7651 10.9757 65.8188 10.9308 65.9392 11.0824C66.0071 11.1678 66.8976 12.1514 67.9181 13.2681C69.0429 14.499 69.8071 15.2776 69.8587 15.2455C69.9056 15.2164 70.6766 14.4886 71.572 13.628C72.8777 12.3733 73.1738 12.0529 73.0674 12.01C72.9943 11.9805 72.5308 11.9538 72.0374 11.9506C71.5439 11.9474 70.915 11.923 70.6397 11.8965L70.1392 11.8483L68.8501 10.4677C68.1411 9.70842 67.2022 8.70676 66.7636 8.24176L65.9662 7.39637L63.6989 9.48141ZM9.7286 7.76197C7.64927 8.00789 6.30699 8.87813 5.57548 10.4546C5.41144 10.8083 0 32.7245 0 33.0353C0 33.1192 0.531739 33.1376 2.94572 33.1376H5.89144L6.16112 31.9751C6.30946 31.3357 6.52314 30.4098 6.63596 29.9175L6.84112 29.0224L11.1514 29.0218L15.4616 29.0212L15.5897 29.612C15.6601 29.937 15.8597 30.8546 16.0332 31.6512L16.3487 33.0995L19.3145 33.1194C21.663 33.1353 22.2799 33.1193 22.2781 33.0432C22.2769 32.9904 21.0526 27.9626 19.5574 21.8704C17.4279 13.194 16.7858 10.6832 16.5941 10.2835C16.2651 9.59774 15.3971 8.71355 14.729 8.38378C13.5063 7.78027 11.5892 7.5419 9.7286 7.76197ZM25.3919 8.30579C25.3687 8.65173 25.3319 12.8796 25.31 17.7011C25.2881 22.5226 25.2486 27.9683 25.2221 29.8026L25.1741 33.1376H28.1678C30.8288 33.1376 31.1667 33.1242 31.207 33.017C31.2319 32.9507 31.2523 30.6727 31.2523 27.9546V23.0128L31.8692 22.961C32.5739 22.9017 33.7627 23.017 34.2493 23.1917C34.7317 23.3649 35.0821 23.6384 35.4751 24.1485C36.3106 25.2326 36.9195 26.9127 37.9319 30.927C38.1169 31.6607 38.3299 32.4497 38.4052 32.6803L38.5421 33.0995L41.8878 33.1193C43.728 33.1302 45.2336 33.1273 45.2336 33.1128C45.2336 33.0127 43.372 27.464 43.0301 26.545C41.8432 23.3548 40.8746 21.4546 39.7903 20.1893C39.4725 19.8185 38.8396 19.2973 38.5237 19.1463C38.5136 19.1414 39.9031 16.5876 41.6115 13.4712C43.927 9.24738 44.693 7.78896 44.6206 7.74208C44.5671 7.70754 43.1252 7.67873 41.4161 7.67804C38.9836 7.67713 38.2801 7.6984 38.1761 7.776C38.0537 7.86724 37.3027 9.35121 34.224 15.5857L33.0852 17.8917H32.181H31.2768L31.2272 14.1755C31.2 12.1316 31.1777 9.83329 31.1776 9.06809L31.1776 7.6769H28.3058H25.434L25.3919 8.30579ZM82.7415 7.72774C82.714 7.75564 82.6916 8.95626 82.6916 10.3958V13.013L84.7663 13.0134C85.9075 13.0136 87.1692 13.0359 87.5701 13.063L88.2991 13.1122V23.1258V33.1394L91.3084 33.1194L94.3178 33.0995L94.3367 23.1063L94.3557 13.1132L95.6452 13.0633C96.3543 13.0359 97.5991 13.0134 98.4112 13.0132L99.8878 13.013V10.3449V7.6769H91.3396C86.638 7.6769 82.7688 7.69977 82.7415 7.72774ZM109.047 7.76502C107.636 7.92587 106.57 8.39491 105.777 9.20302C104.858 10.1405 105.019 9.59621 102.018 21.9319C100.554 27.9483 99.3395 32.9313 99.3181 33.0052C99.2813 33.132 99.4431 33.1383 102.252 33.1195L105.224 33.0995L105.39 32.4135C105.481 32.0361 105.696 31.1182 105.868 30.3737L106.182 29.02L110.491 29.0397L114.8 29.0593L115.244 31.0985L115.688 33.1376H118.666C120.305 33.1376 121.644 33.112 121.643 33.0805C121.642 33.049 120.416 28.0358 118.92 21.9399C115.869 9.51426 116.05 10.1243 115.139 9.19479C114.574 8.61925 113.75 8.16271 112.897 7.95308C111.831 7.69108 110.336 7.61805 109.047 7.76502ZM124.296 7.77219C124.277 7.82463 124.269 13.5447 124.28 20.4835L124.299 33.0995L126.935 33.1196L129.57 33.1396L129.57 32.2429C129.569 31.7497 129.486 27.5753 129.384 22.9664C129.282 18.3575 129.206 14.5782 129.216 14.568C129.226 14.5578 130.633 18.7232 132.341 23.8245L135.448 33.0995L137.917 33.1196L140.387 33.1397L143.513 23.9339C145.233 18.8707 146.663 14.6813 146.692 14.6242C146.721 14.567 146.731 14.8586 146.715 15.2721C146.661 16.643 146.243 31.9471 146.243 32.5478V33.1376H149.121H152V20.4073V7.6769H148.016H144.033L143.087 10.4783C142.567 12.0191 141.293 15.7952 140.255 18.8696C139.163 22.1045 138.345 24.4169 138.314 24.3582C138.284 24.3025 136.988 20.5264 135.433 15.9669L132.607 7.6769H128.469C125.228 7.6769 124.324 7.69756 124.296 7.77219ZM11.6925 12.8034C11.8602 12.9573 12.0025 13.523 13.0798 18.3175C13.7401 21.2559 14.2804 23.6829 14.2804 23.7108C14.2804 23.7386 12.8841 23.7614 11.1776 23.7614C8.83858 23.7614 8.07477 23.7392 8.07477 23.6712C8.07477 23.5726 10.2023 13.6895 10.3249 13.2186C10.4421 12.7685 10.6223 12.6318 11.0986 12.6318C11.4156 12.6318 11.5471 12.6698 11.6925 12.8034ZM110.962 12.7127C111.043 12.7572 111.141 12.8775 111.18 12.9802C111.218 13.0829 111.772 15.4906 112.411 18.3307C113.05 21.1709 113.591 23.5546 113.614 23.628C113.653 23.7536 113.471 23.7614 110.505 23.7614C107.54 23.7614 107.357 23.7535 107.393 23.628C107.414 23.5546 107.922 21.2134 108.522 18.4253C109.121 15.6372 109.645 13.2553 109.686 13.1323C109.816 12.7349 109.965 12.6318 110.409 12.6318C110.632 12.6318 110.88 12.6682 110.962 12.7127ZM64.5822 15.5816L63.4822 16.62L64.0019 17.1987C64.2878 17.5169 64.7536 18.0339 65.0372 18.3475L65.5529 18.9177L66.3518 18.157C66.7913 17.7385 67.299 17.259 67.4801 17.0913L67.8095 16.7864L66.7937 15.681C66.235 15.0731 65.7564 14.5684 65.7301 14.5595C65.7038 14.5505 65.1872 15.0105 64.5822 15.5816ZM59.6555 26.6161C58.7424 26.8729 57.964 27.5447 57.521 28.4585C57.2698 28.9768 57.2366 29.1146 57.2093 29.7494C57.1701 30.663 57.3521 31.3217 57.8244 31.9759C58.9021 33.4683 60.9306 33.8312 62.4497 32.8031C62.9677 32.4526 63.3369 31.9985 63.6473 31.3303C63.8748 30.8408 63.8878 30.7651 63.8878 29.936C63.8878 29.107 63.8748 29.0312 63.6475 28.5419C63.215 27.6111 62.3561 26.8629 61.4318 26.612C60.9601 26.4839 60.1187 26.4859 59.6555 26.6161ZM72.1344 26.648C71.512 26.858 71.0977 27.1307 70.6606 27.6183C70.0416 28.3089 69.7563 29.0396 69.7579 29.9308C69.7616 32.0314 71.5832 33.6485 73.6212 33.3605C75.409 33.1078 76.7753 31.2705 76.4945 29.4971C76.2908 28.2108 75.613 27.3149 74.4236 26.7597C73.836 26.4855 72.7705 26.4335 72.1344 26.648ZM61.3625 28.6113C62.2565 29.1359 62.34 30.5467 61.5147 31.182C60.4717 31.9847 59.018 31.2551 59.0327 29.936C59.0466 28.6915 60.2921 27.9832 61.3625 28.6113ZM73.8717 28.5652C74.7809 29.0382 74.9545 30.2978 74.2144 31.0524C73.1252 32.1629 71.3145 31.146 71.6385 29.6058C71.7184 29.2261 72.0819 28.7236 72.4048 28.5466C72.8432 28.3064 73.3874 28.3133 73.8717 28.5652Z" fill="#1165C7"/>
<path fill-rule="evenodd" clip-rule="evenodd" d="M63.699 9.4814L61.4317 11.5664L59.9742 11.515C58.5316 11.4641 58.5177 11.4651 58.6228 11.6143C58.8003 11.866 61.5564 14.9187 61.6062 14.9187C61.6318 14.9187 62.5894 14.0206 63.7343 12.9229C65.7652 10.9757 65.819 10.9308 65.9393 11.0824C66.0072 11.1678 66.8977 12.1514 67.9182 13.2681C69.043 14.499 69.8072 15.2776 69.8588 15.2455C69.9057 15.2164 70.6767 14.4886 71.5721 13.628C72.8778 12.3733 73.1739 12.0529 73.0675 12.0099C72.9944 11.9805 72.531 11.9538 72.0375 11.9506C71.544 11.9474 70.9151 11.923 70.6398 11.8965L70.1393 11.8483L68.8502 10.4677C68.1412 9.70841 67.2023 8.70675 66.7637 8.24175L65.9663 7.39636L63.699 9.4814Z" fill="#18B5C2"/>
</svg>
